<?xml version="1.0" encoding="utf-8"?>
<!-- Generator: Adobe Illustrator 24.1.1, SVG Export Plug-In . SVG Version: 6.00 Build 0)  -->
<svg version="1.1" id="Layer_1" xmlns="http://www.w3.org/2000/svg" xmlns:xlink="http://www.w3.org/1999/xlink" x="0px" y="0px"
	 viewBox="0 0 2500 2500" style="enable-background:new 0 0 2500 2500;" xml:space="preserve">
<style type="text/css">
	.st0{fill-rule:evenodd;clip-rule:evenodd;}
	.st1{fill-rule:evenodd;clip-rule:evenodd;fill:#505A5B;}
	.st2{fill-rule:evenodd;clip-rule:evenodd;fill:#D36060;}
</style>
<g>
	<path class="st0" d="M436.2,215.1c-11.8,103.8,29.1,198.1,116.3,254.7c136,93.5,294.8,130.5,424.5,238.2
		c35.4,33,58.2,73.9,51.1,122.6c-105.3,116.3-184.7,265.7-133.6,426c37,128.9,95.1,249.2,158,367.9
		c-119.5,58.9-269.6,127.3-322.3,264.1c-11.8,34.6-24.4,68.4-29.9,105.3c-17.3-111.6-81-212.2-176.1-288.5
		c7.1,44.8-0.8,92.8-22,130.5c-58.2,82.5-98.2,194.2-58.9,296.3c23.6,71.5,95.1,138.3,165.9,160.3c-132.8-3.1-268-71.5-327.8-196.5
		c-52.7-111.6-29.1-262.5,44.8-356.9c49.5-75.5,135.2-143.9,111.6-242.9c99.8,57.4,227.2,81.7,290.8,195.7c7.9-11,0-25.1,0-37.7
		c-36.9-128.9-180.8-142.3-273.5-205.2c-98.2-39.3-184.7-140.7-191-249.2c-8.7-64.5-3.2-132.8,24.4-187.1
		c62.1,115.5,193.4,143.1,294.8,202c60.5,32.2,130.5,58.9,169.8,126.5c2.4-54.2-30.6-102.2-75.4-136
		c-162.7-88-422.1-166.6-426.8-400.1c-2.4-66.8,14.9-125,44-179.2c7.9,7.9,7.9,22.8,14.9,32.2c103,154.8,278.3,170.6,407.2,285.3
		c19.6,19.6,31.4,44,47.2,66c13.4-63.7-22-121-75.5-157.2c-35.4-22.8-77-36.2-110.8-59.7c-125.8-54.2-282.2-165.1-286.9-319.1
		C268,335.4,341.9,213.5,455.1,132.6C448.8,156.2,436.2,185.2,436.2,215.1L436.2,215.1z"/>
	<path class="st1" d="M1267.8,2103.9c35.4-130.5-31.4-276.7,20.4-404c0-3.1,1.6-7.1-1.6-9.4c-29.1,23.6-52.7,47.9-81,73.9
		c44-90.4,80.2-201.2,56.6-313.6c-3.1-8.7-10.2,0-11.8,3.9c-23.6,70-92.7,120.3-156.4,150.9c-79.4-155.6-174.5-306.6-165.8-496
		c19.6-172.9,188.6-278.3,258.6-429.9c16.5-53.5,6.3-114.8-32.2-154.8c-36.9-36.1-81.7-52.7-130.5-60.5c6.3-21.2,22.8-43.2,44-52.7
		c42.4-21.2,92.7-2.4,132,13.4c66-31.4,144.6-1.6,205.1,25.9c58.9,25.9,106.9,79.4,177.6,77.8c-1.6,18.1-22.8,30.7-37.7,37.7
		c-55.8,7.9-103.8-19.6-150.9-32.2c56.6,90.4,33.8,212.2,1.6,307.3c0.8,0.8,1.6,1.6,2.4,1.6c62.1-85.7,156.4-143.8,245.2-190.2
		c92.8-44.8,186.3-87.3,279.1-133.6c87.2-53.4,161.1-145.4,158-253.1c-2.4-38.5-7.9-76.2-24.4-109.3
		c116.3,78.6,177.6,198.9,162.7,337.2c-11.8,130.5-116.4,258.6-239.7,300.3c-94.3,60.5-259.4,94.3-264.1,237.4
		c29.9-47.2,77.8-88.8,128.1-110.8c129.7-76.2,295.5-106.9,369.4-260.2h3.9c55,115.5,42.4,275.9-47.2,371
		c-103.8,111.6-248.4,133.6-367.9,213.8c-55.8,34.6-86.5,92.8-88.8,152.5c66-123.4,205.1-142.3,311.2-203.6
		c69.2-33.8,144.6-70,191-137.5h3.9c31.4,125,18.8,277.5-87.2,363.9c-96.7,77.8-212.3,110.8-315.2,175.3c-33.8,25.1-53.4,59-66,94.3
		c1.6,1.6,3.1,2.4,3.9,3.9c90.4-94.3,219.3-96.7,316.8-173.7c-18.9,139.1,126.6,217.7,143.9,345.1
		c32.2,142.3-17.3,281.4-130.5,373.3c-70,52.7-160.3,62.9-249.2,64.5c15.7-3.1,32.2-11,49.5-13.4c76.2-27.5,145.4-101.4,150.9-184.7
		c11-142.3-132.8-254.7-51.1-397.7c-22.8,1.6-42.4,22-64.4,33.8c-118.7,79.4-167.4,208.3-245.2,315.2h-3.2
		c46.4-76.2,19.7-183.1,81-253.1c7.1-3.9,8.6-14.2,13.4-20.4c-42.4,4.7-81.7,29.1-117.1,56.6c-180.8,121.9-192.6,382-420.5,441
		c-59.7,17.3-130.5,22.8-192.6,17.3C1137.3,2283.1,1243.5,2208.5,1267.8,2103.9L1267.8,2103.9z M1367.6,1979
		c89.6-119.5,283-165.9,297.9-334.1c-25.1,22-55,33-81,55c-2.4,0.8-7.1,3.9-9.4,0c22.8-40.9,32.2-87.2,43.2-132.1
		c3.1-27.5,10.2-57.4,11.8-81c-70.8,70.8-168.2,97.5-222.5,188.6C1343.3,1762.8,1372.4,1876.8,1367.6,1979L1367.6,1979z"/>
	<path class="st2" d="M1102,1741.6c-51.9,110.8,10.2,259.4-52.7,367.9c-60.5,123.4-194.1,202.8-336.4,188.6
		c48.7-11,88-62.9,100.6-107.7c23.6-92.8,7.9-202.8,71.5-279.1c59.7-95.1,161.9-130.5,237.4-207.5
		C1122.4,1714.8,1106.7,1728.2,1102,1741.6L1102,1741.6z M1899.8,1896.4c-37.7,79.4,3.1,170.6-33.8,254.7
		c-29.9,76.2-110,132.8-188.6,143.1c-93.6,7.8-185.5,7.8-279.1,7.8c187.1-31.5,341.1-185.5,440.9-347.4
		C1855.8,1933.4,1877,1909.8,1899.8,1896.4L1899.8,1896.4z"/>
</g>
</svg>
